# xmcd CD database file
#
# Track frame offsets:
#	150
#	16484
#	30571
#	42655
#	58336
#	72183
#	87310
#	104699
#	117958
#	130502
#	145254
#	158749
#	174415
#	189919
#
# Disc length: 2790 seconds
#
# Revision: 3
# Processed by: cddbd v1.5.2PL0 Copyright (c) Steve Scherf et al.
# Submitted via: CDex 1.51
#
DISCID=c00ae40e
DTITLE=America - America Live
DYEAR=1977
DGENRE=Pop Rock
TTITLE0=Tin Man (Live)
TTITLE1=Muskrat Love (Live)
TTITLE2=I Need You (Live)
TTITLE3=Old Man Took (Live)
TTITLE4=Daisy Jane (Live)
TTITLE5=Company (Live)
TTITLE6=Hollywood (Live)
TTITLE7=Sergeant Darkness (Live)
TTITLE8=Amber Cascades (Live)
TTITLE9=To Each His Own (Live)
TTITLE10=Another Day (Live)
TTITLE11=Ventura Highway (Live)
TTITLE12=Sister Golden Hair (Live)
TTITLE13=A Horse With No Name (Live)
EXTD=YEAR: 1977
EXTT0=
EXTT1=
EXTT2=
EXTT3=
EXTT4=
EXTT5=
EXTT6=
EXTT7=
EXTT8=
EXTT9=
EXTT10=
EXTT11=
EXTT12=
EXTT13=
PLAYORDER=
